REM DIRINDEX 1\2\3,1\2\4,1\2\5,1\2\6
REM DIRNAME cjc157,folder01,folder02,folder03,folder04,folder05
TITLE ""
FILE "079 079.mp3" MP3
  TRACK 01 AUDIO
    TITLE "0:"
    INDEX 01 00:00:00
  TRACK 02 AUDIO
    TITLE "3:cjc157_2968"
    INDEX 01 00:00:09
  TRACK 03 AUDIO
    TITLE "0:"
    INDEX 01 00:01:22
  TRACK 04 AUDIO
    TITLE "4:cjc157_2969"
    INDEX 01 00:01:68
  TRACK 05 AUDIO
    TITLE "0:"
    INDEX 01 00:03:08
  TRACK 06 AUDIO
    TITLE "5:cjc157_2970"
    INDEX 01 00:03:51
  TRACK 07 AUDIO
    TITLE "0:"
    INDEX 01 00:06:06
  TRACK 08 AUDIO
    TITLE "5:cjc157_2971"
    INDEX 01 00:06:53
  TRACK 09 AUDIO
    TITLE "0:"
    INDEX 01 00:08:34
  TRACK 10 AUDIO
    TITLE "3:cjc157_2972"
    INDEX 01 00:08:73
  TRACK 11 AUDIO
    TITLE "0:"
    INDEX 01 00:10:23
  TRACK 12 AUDIO
    TITLE "4:cjc157_2973"
    INDEX 01 00:10:68
  TRACK 13 AUDIO
    TITLE "0:"
    INDEX 01 00:12:03
  TRACK 14 AUDIO
    TITLE "5:cjc157_2974"
    INDEX 01 00:12:48
  TRACK 15 AUDIO
    TITLE "0:"
    INDEX 01 00:14:51
  TRACK 16 AUDIO
    TITLE "5:cjc157_2975"
    INDEX 01 00:15:23
  TRACK 17 AUDIO
    TITLE "0:"
    INDEX 01 00:17:21
  TRACK 18 AUDIO
    TITLE "5:cjc157_2976"
    INDEX 01 00:17:65
  TRACK 19 AUDIO
    TITLE "0:"
    INDEX 01 00:19:56
  TRACK 20 AUDIO
    TITLE "5:cjc157_2977"
    INDEX 01 00:20:24
  TRACK 21 AUDIO
    TITLE "0:"
    INDEX 01 00:23:06
  TRACK 22 AUDIO
    TITLE "3:cjc157_2978"
    INDEX 01 00:23:51
  TRACK 23 AUDIO
    TITLE "0:"
    INDEX 01 00:24:65
  TRACK 24 AUDIO
    TITLE "4:cjc157_2979"
    INDEX 01 00:25:37
  TRACK 25 AUDIO
    TITLE "0:"
    INDEX 01 00:26:46
  TRACK 26 AUDIO
    TITLE "5:cjc157_2980"
    INDEX 01 00:27:12
  TRACK 27 AUDIO
    TITLE "0:"
    INDEX 01 00:29:01
  TRACK 28 AUDIO
    TITLE "5:cjc157_2981"
    INDEX 01 00:29:48
  TRACK 29 AUDIO
    TITLE "0:"
    INDEX 01 00:31:26
  TRACK 30 AUDIO
    TITLE "3:cjc157_2982"
    INDEX 01 00:32:00
  TRACK 31 AUDIO
    TITLE "0:"
    INDEX 01 00:33:15
  TRACK 32 AUDIO
    TITLE "4:cjc157_2983"
    INDEX 01 00:33:62
  TRACK 33 AUDIO
    TITLE "0:"
    INDEX 01 00:36:68
  TRACK 34 AUDIO
    TITLE "5:cjc157_2984"
    INDEX 01 00:37:34
  TRACK 35 AUDIO
    TITLE "0:"
    INDEX 01 00:39:45
  TRACK 36 AUDIO
    TITLE "5:cjc157_2985"
    INDEX 01 00:40:15
  TRACK 37 AUDIO
    TITLE "0:"
    INDEX 01 00:43:17
  TRACK 38 AUDIO
    TITLE "3:cjc157_2986"
    INDEX 01 00:43:70
  TRACK 39 AUDIO
    TITLE "0:"
    INDEX 01 00:45:04
  TRACK 40 AUDIO
    TITLE "4:cjc157_2987"
    INDEX 01 00:45:47
  TRACK 41 AUDIO
    TITLE "0:"
    INDEX 01 00:46:43
  TRACK 42 AUDIO
    TITLE "5:cjc157_2988"
    INDEX 01 00:47:17
  TRACK 43 AUDIO
    TITLE "0:"
    INDEX 01 00:49:20
  TRACK 44 AUDIO
    TITLE "5:cjc157_2989"
    INDEX 01 00:49:69
  TRACK 45 AUDIO
    TITLE "0:"
    INDEX 01 00:52:04
  TRACK 46 AUDIO
    TITLE "5:cjc157_2990"
    INDEX 01 00:52:51
  TRACK 47 AUDIO
    TITLE "0:"
    INDEX 01 00:54:56
  TRACK 48 AUDIO
    TITLE "3:cjc157_2991"
    INDEX 01 00:55:28
  TRACK 49 AUDIO
    TITLE "0:"
    INDEX 01 00:56:51
  TRACK 50 AUDIO
    TITLE "4:cjc157_2992"
    INDEX 01 00:57:17
  TRACK 51 AUDIO
    TITLE "0:"
    INDEX 01 00:58:22
  TRACK 52 AUDIO
    TITLE "5:cjc157_2993"
    INDEX 01 00:58:67
  TRACK 53 AUDIO
    TITLE "0:"
    INDEX 01 01:01:42
  TRACK 54 AUDIO
    TITLE "5:cjc157_2994"
    INDEX 01 01:02:16
  TRACK 55 AUDIO
    TITLE "0:"
    INDEX 01 01:03:33
  TRACK 56 AUDIO
    TITLE "3:cjc157_2995"
    INDEX 01 01:04:05
  TRACK 57 AUDIO
    TITLE "0:"
    INDEX 01 01:04:74
  TRACK 58 AUDIO
    TITLE "4:cjc157_2996"
    INDEX 01 01:05:44
  TRACK 59 AUDIO
    TITLE "0:"
    INDEX 01 01:06:53
  TRACK 60 AUDIO
    TITLE "5:cjc157_2997"
    INDEX 01 01:07:25
  TRACK 61 AUDIO
    TITLE "0:"
    INDEX 01 01:09:09
  TRACK 62 AUDIO
    TITLE "5:cjc157_2998"
    INDEX 01 01:09:54
  TRACK 63 AUDIO
    TITLE "0:"
    INDEX 01 01:11:33
  TRACK 64 AUDIO
    TITLE "3:cjc157_2999"
    INDEX 01 01:12:05
  TRACK 65 AUDIO
    TITLE "0:"
    INDEX 01 01:13:30
  TRACK 66 AUDIO
    TITLE "4:cjc157_3000"
    INDEX 01 01:14:00
  TRACK 67 AUDIO
    TITLE "0:"
    INDEX 01 01:15:19
  TRACK 68 AUDIO
    TITLE "5:cjc157_3001"
    INDEX 01 01:15:68
  TRACK 69 AUDIO
    TITLE "0:"
    INDEX 01 01:18:13
  TRACK 70 AUDIO
    TITLE "3:cjc157_3002"
    INDEX 01 01:18:58
  TRACK 71 AUDIO
    TITLE "0:"
    INDEX 01 01:19:62
  TRACK 72 AUDIO
    TITLE "4:cjc157_3003"
    INDEX 01 01:20:34
  TRACK 73 AUDIO
    TITLE "0:"
    INDEX 01 01:21:29
  TRACK 74 AUDIO
    TITLE "5:cjc157_3004"
    INDEX 01 01:22:03
  TRACK 75 AUDIO
    TITLE "0:"
    INDEX 01 01:23:52
  TRACK 76 AUDIO
    TITLE "5:cjc157_3005"
    INDEX 01 01:24:24
  TRACK 77 AUDIO
    TITLE "0:"
    INDEX 01 01:25:58
  TRACK 78 AUDIO
    TITLE "3:cjc157_3006"
    INDEX 01 01:26:29
  TRACK 79 AUDIO
    TITLE "0:"
    INDEX 01 01:27:22
  TRACK 80 AUDIO
    TITLE "4:cjc157_3007"
    INDEX 01 01:27:67
  TRACK 81 AUDIO
    TITLE "0:"
    INDEX 01 01:28:72
  TRACK 82 AUDIO
    TITLE "5:cjc157_3008"
    INDEX 01 01:29:46
  TRACK 83 AUDIO
    TITLE "0:"
    INDEX 01 01:31:67
  TRACK 84 AUDIO
    TITLE "5:cjc157_3009"
    INDEX 01 01:32:39
  TRACK 85 AUDIO
    TITLE "0:"
    INDEX 01 01:34:42
